# xmcd
#
# Track frame offsets: 
#        152
#        18170
#        34950
#        58030
#        86730
#        106080
#        126687
#        152655
#        166480
#        188152
#
# Disc length: 2739 seconds
#
# Revision: 6
# Processed by: cddbd v1.5.2PL0 Copyright (c) Steve Scherf et al.
# Submitted via: ExactAudioCopy v0.99pb4
#
DISCID=810ab10a
DTITLE=Mitch Woods And His Rocket 88's - Shakin' The Shack
DYEAR=1993
DGENRE=Blues
TTITLE0=Honkin', Shoutin', Pumpin', Poundin'
TTITLE1=Shakin' The Shack
TTITLE2=Zydeco The Boogie 
TTITLE3=Cryin' For My Baby
TTITLE4=Queen Bee
TTITLE5=Hattie Green
TTITLE6=Boogie With The Boogieman
TTITLE7=Long, Lean, And Lanky
TTITLE8=Blue Boogie
TTITLE9=Bonin'
EXTD=
EXTT0=
EXTT1=
EXTT2=
EXTT3=
EXTT4=
EXTT5=
EXTT6=
EXTT7=
EXTT8=
EXTT9=
PLAYORDER=
